# xmcd
# 
# Track frame offsets:
#     150
#     12971
#     22196
#     31903
#     42796
#     54450
#     67125
#     77668
#     88653
#     98652
#     111419
#     120519
#     133471
#     146519
#     155840
#     173723
#     186320
#     197294
#     208337
#     222012
#     235330
# 
# Disc length: 3290
# 
# Revision: 3
# Processed by: cddbd v1.5.2PL0 Copyright (c) Steve Scherf et al.
# Submitted via: fre:ac v1.0.31
# 
DISCID=300cd815
DTITLE=Vee - Jay - Vee-Jay:  The Definitive Collection Disc 3
DYEAR=2007
DGENRE=R&B
TTITLE0=The Swan Silvertones - Mary Don't You Weep
TTITLE1=Memphis Slim - Steppin' Out
TTITLE2=Rosco Gordon - Just a Little Bit
TTITLE3=Jimmy Reed - Baby What You Want Me to Do
TTITLE4=Donnie Elbert - Will You Ever Be Mine
TTITLE5=The Staple Singers - Will the Circle Be Unbroken
TTITLE6=Wade Flemons - Easy Lovin'
TTITLE7=John Lee Hooker - No Shoes
TTITLE8=J.B. Lenoir - Oh Baby
TTITLE9=Jerry Butler - He Will Break Your Heart
TTITLE10=Eddie Harris - Exodus
TTITLE11=Jimmy Reed - Big Boss Man
TTITLE12=Dee Clark - Raindrops
TTITLE13=Gladys Knight and the Pips - Every Beat of My Heart
TTITLE14=Sallie Martin Singers - Old Ship of Zion
TTITLE15=Jimmy Reed - Bright Lights, Big City
TTITLE16=The Dukays - Nite Owl
TTITLE17=Gene Chandler - Duke of Earl
TTITLE18=The Moonglows - Real Gone Mama
TTITLE19=The "5" Royales - Help Me Somebody
TTITLE20=John Lee Hooker - Boom Boom
EXTD=
EXTT0=
EXTT1=
EXTT2=
EXTT3=
EXTT4=
EXTT5=
EXTT6=
EXTT7=
EXTT8=
EXTT9=
EXTT10=
EXTT11=
EXTT12=
EXTT13=
EXTT14=
EXTT15=
EXTT16=
EXTT17=
EXTT18=
EXTT19=
EXTT20=
PLAYORDER=
